<svg width="59" height="58" viewBox="0 0 59 58" fill="none" xmlns="http://www.w3.org/2000/svg">
<path fill-rule="evenodd" clip-rule="evenodd" d="M37.2417 57.6236C48.741 57.6236 58.0631 44.7742 58.0631 28.9238C58.0631 13.0733 48.741 0.223999 37.2417 0.223999C30.6917 0.223999 24.8481 4.39284 21.0313 10.9106C18.0403 9.12496 14.3544 8.10237 9.10464 8.10237C-1.84724 8.10237 -0.61997 12.5528 1.18464 19.0969C1.99181 22.024 2.91448 25.3699 2.91448 28.9238C2.91448 32.4777 1.99181 35.8236 1.18464 38.7506C-0.619971 45.2947 -1.84724 49.7452 9.10463 49.7452C14.3544 49.7452 18.0403 48.7226 21.0313 46.937C24.8481 53.4547 30.6917 57.6236 37.2417 57.6236ZM21.0313 46.937C18.1472 42.012 16.4203 35.7459 16.4203 28.9238C16.4203 22.1017 18.1472 15.8355 21.0313 10.9106C24.65 13.0709 27.2516 16.3482 30.3748 20.2826C31.7177 21.9743 33.1571 23.7875 34.8152 25.6857C36.4262 27.5298 36.4262 30.3178 34.8152 32.1619C33.1571 34.0601 31.7177 35.8733 30.3748 37.565C27.2516 41.4994 24.65 44.7767 21.0313 46.937Z" fill="#0D76D8"/>
</svg>
