<?xml version="1.0" standalone="no"?>
<!DOCTYPE svg PUBLIC "-//W3C//DTD SVG 20010904//EN"
 "http://www.w3.org/TR/2001/REC-SVG-20010904/DTD/svg10.dtd">
<svg version="1.0" xmlns="http://www.w3.org/2000/svg"
 width="111.000000pt" height="60.000000pt" viewBox="0 0 111.000000 60.000000"
 preserveAspectRatio="xMidYMid meet">

<g transform="translate(0.000000,60.000000) scale(0.100000,-0.100000)"
fill="#000000" stroke="none">
<path d="M0 300 l0 -300 555 0 555 0 0 300 0 300 -555 0 -555 0 0 -300z m587
189 c5 -28 4 -29 -36 -29 -22 0 -41 2 -41 4 0 4 27 82 36 106 7 17 31 -30 41
-81z m-179 2 l42 -49 -38 -15 c-20 -8 -39 -13 -42 -10 -7 7 -16 123 -9 123 3
0 24 -22 47 -49z m342 -13 c-5 -68 -7 -69 -63 -46 l-27 11 42 47 c24 27 45 48
48 49 3 1 3 -27 0 -61z m-441 -104 c6 -5 -40 -54 -51 -54 -7 0 -58 92 -58 105
0 5 98 -41 109 -51z m371 25 c68 -31 107 -65 140 -122 39 -68 39 -93 -1 -34
-95 144 -274 192 -415 112 -39 -23 -100 -83 -137 -135 -9 -14 -6 -2 7 25 60
120 148 173 286 174 55 0 87 -5 120 -20z m203 -34 l-27 -55 -28 27 c-15 15
-28 30 -28 34 0 6 87 48 102 49 4 0 -4 -25 -19 -55z m-653 -104 c0 -16 -22
-71 -28 -71 -4 0 -27 18 -52 40 l-45 39 63 1 c34 0 62 -4 62 -9z m780 5 c0 -5
-96 -76 -103 -76 -3 0 -8 11 -11 24 -3 13 -9 31 -12 40 -5 14 4 16 60 16 36 0
66 -2 66 -4z m-635 -27 c4 -6 -2 -19 -14 -30 l-21 -20 0 31 c0 30 21 42 35 19z
m64 -21 c-1 -31 -1 -31 -8 -8 -5 14 -6 28 -4 33 9 15 13 6 12 -25z m178 20
c11 15 12 13 13 -15 0 -30 -19 -49 -21 -20 0 10 -2 10 -6 0 -9 -25 -23 -13
-22 20 0 27 2 29 12 15 10 -15 12 -15 24 0z m163 -24 c0 -13 -4 -24 -10 -24
-5 0 -10 14 -10 31 0 17 4 28 10 24 6 -3 10 -17 10 -31z m-75 -4 c1 -11 -2
-20 -7 -20 -4 0 -8 8 -8 18 -1 16 -1 16 -11 0 -14 -25 -39 -22 -39 3 0 16 5
20 20 16 11 -3 23 -1 26 5 8 13 17 2 19 -22z m-287 -3 c2 -12 -3 -17 -17 -17
-12 0 -21 5 -21 10 0 6 5 10 11 10 5 0 7 5 3 11 -4 7 -1 10 7 7 8 -3 15 -12
17 -21z m62 3 c0 -11 -6 -20 -14 -20 -9 0 -14 9 -13 20 1 11 7 20 14 20 7 0
13 -9 13 -20z m30 10 c-13 -9 -13 -11 0 -21 13 -9 13 -10 0 -6 -22 6 -25 37
-3 37 15 0 16 -2 3 -10z m56 -2 c5 -8 2 -9 -9 -5 -10 3 -17 2 -17 -2 0 -5 6
-12 13 -14 7 -3 5 -6 -5 -6 -12 -1 -18 6 -18 19 0 22 24 27 36 8z m184 1 c0
-5 -4 -7 -10 -4 -5 3 -10 2 -10 -4 0 -5 6 -12 13 -14 7 -3 6 -6 -5 -6 -20 -1
-32 15 -23 29 8 13 35 13 35 -1z m-433 -75 c2 -7 -7 -11 -22 -11 -25 0 -31 7
-18 21 10 10 36 3 40 -10z m241 -56 l3 -66 -30 -4 c-43 -6 -61 7 -61 46 0 37
21 62 45 52 11 -4 15 1 15 20 0 16 5 24 13 22 7 -3 13 -29 15 -70z m402 2 c0
-56 -3 -70 -15 -70 -12 0 -15 14 -15 70 0 56 3 70 15 70 12 0 15 -14 15 -70z
m-736 44 c9 -8 16 -22 16 -29 0 -18 -28 -45 -46 -45 -8 0 -14 -9 -14 -20 0
-11 -7 -20 -15 -20 -12 0 -15 14 -15 65 l0 65 29 0 c16 0 37 -7 45 -16z m574
-2 c3 -9 -3 -11 -22 -6 -35 8 -36 -18 -1 -34 50 -23 17 -94 -35 -77 -29 9 -25
33 4 28 36 -7 41 14 6 32 -31 16 -39 42 -18 63 16 16 60 12 66 -6z m-477 -22
c29 -16 26 -77 -5 -91 -37 -17 -66 3 -66 46 0 46 31 66 71 45z m99 -5 c0 -7
-7 -15 -15 -19 -9 -3 -15 -18 -15 -36 0 -20 -5 -30 -15 -30 -11 0 -15 11 -15
43 0 24 2 46 4 48 11 10 56 6 56 -6z m231 5 c29 -16 26 -77 -5 -91 -37 -17
-66 3 -66 46 0 46 31 66 71 45z m240 0 c29 -16 26 -77 -5 -91 -37 -17 -66 3
-66 46 0 46 31 66 71 45z"/>
<path d="M650 210 c0 -5 5 -10 10 -10 6 0 10 5 10 10 0 6 -4 10 -10 10 -5 0
-10 -4 -10 -10z"/>
<path d="M494 75 c-7 -18 3 -35 22 -35 8 0 14 10 14 25 0 27 -27 35 -36 10z"/>
<path d="M178 123 c-9 -17 -2 -38 12 -38 18 0 20 37 3 42 -6 2 -13 0 -15 -4z"/>
<path d="M281 86 c-16 -19 -7 -46 14 -46 22 0 30 29 13 46 -13 13 -16 13 -27
0z"/>
<path d="M611 86 c-16 -19 -7 -46 14 -46 22 0 30 29 13 46 -13 13 -16 13 -27
0z"/>
<path d="M851 86 c-16 -19 -7 -46 14 -46 22 0 30 29 13 46 -13 13 -16 13 -27
0z"/>
</g>
</svg>
