<?xml version="1.0" encoding="UTF-8" standalone="no"?>
<svg
   xmlns:dc="http://purl.org/dc/elements/1.1/"
   xmlns:cc="http://creativecommons.org/ns#"
   xmlns:rdf="http://www.w3.org/1999/02/22-rdf-syntax-ns#"
   xmlns:svg="http://www.w3.org/2000/svg"
   xmlns="http://www.w3.org/2000/svg"
   xmlns:sodipodi="http://sodipodi.sourceforge.net/DTD/sodipodi-0.dtd"
   xmlns:inkscape="http://www.inkscape.org/namespaces/inkscape"
   version="1.1"
   id="Calque_1"
   x="0px"
   y="0px"
   viewBox="0 0 700 700"
   xml:space="preserve"
   sodipodi:docname="ibis-styles-logo.svg"
   inkscape:export-filename="C:\Users\suitedoalex\Downloads\ibis-styles-logo.-0.png"
   inkscape:export-xdpi="561.73712"
   inkscape:export-ydpi="561.73712"
   width="700"
   height="700"
   inkscape:version="0.92.4 (5da689c313, 2019-01-14)"><metadata
     id="metadata37"><rdf:RDF><cc:Work
         rdf:about=""><dc:format>image/svg+xml</dc:format><dc:type
           rdf:resource="http://purl.org/dc/dcmitype/StillImage" /><dc:title></dc:title></cc:Work></rdf:RDF></metadata><defs
     id="defs35" /><sodipodi:namedview
     pagecolor="#ffffff"
     bordercolor="#666666"
     borderopacity="1"
     objecttolerance="10"
     gridtolerance="10"
     guidetolerance="10"
     inkscape:pageopacity="0"
     inkscape:pageshadow="2"
     inkscape:window-width="1600"
     inkscape:window-height="837"
     id="namedview33"
     showgrid="false"
     inkscape:zoom="0.71384124"
     inkscape:cx="445.05131"
     inkscape:cy="188.10289"
     inkscape:window-x="-8"
     inkscape:window-y="-8"
     inkscape:window-maximized="1"
     inkscape:current-layer="Calque_1" /><style
     type="text/css"
     id="style2">
	.st0{fill:#707372;}
	.st1{fill:#291F1D;}
	.st2{fill:#464648;}
	.st3{fill:#E32119;}
	.st4{fill:#8C734B;}
	.st5{fill:#4D1C6B;}
	.st6{fill:#491D74;}
	.st7{fill:#A2864C;}
	.st8{fill:#FFFFFF;}
	.st9{fill:#9CA47E;}
	.st10{fill:#F8AF39;}
	.st11{fill:#A67B94;}
	.st12{fill:#BBCE00;}
	.st13{fill:#2580C3;}
	.st14{fill:#D8EEF9;}
	.st15{fill:#00B3D4;}
	.st16{fill:#E20613;}
	.st17{fill:#1D1D1B;}
	.st18{fill:#20255F;}
	.st19{fill:#E1DDD0;}
	.st20{fill:#5F255F;}
	.st21{fill:#5D544F;}
	.st22{fill:#FFF000;}
	.st23{fill:#414445;}
	.st24{fill-rule:evenodd;clip-rule:evenodd;fill:#F8AA00;}
	.st25{fill-rule:evenodd;clip-rule:evenodd;fill:#FFFFFF;}
	.st26{fill-rule:evenodd;clip-rule:evenodd;fill:#1D1D1B;}
	.st27{fill:#002E66;}
	.st28{fill:#1A1617;}
	.st29{fill:#002F5F;}
	.st30{fill:#D0A65A;}
	.st31{fill:#E6A500;}
	.st32{fill:#002B41;}
	.st33{fill:#0072C6;}
	.st34{fill:#43180B;}
	.st35{fill:#B7371F;}
	.st36{clip-path:url(#SVGID_4_);fill:#796A48;}
	.st37{clip-path:url(#SVGID_6_);fill:none;stroke:#796A48;stroke-width:0.283;stroke-miterlimit:3.864;}
	.st38{clip-path:url(#SVGID_8_);fill:#796A48;}
	.st39{clip-path:url(#SVGID_10_);fill:none;stroke:#796A48;stroke-width:0.283;stroke-miterlimit:3.864;}
	.st40{clip-path:url(#SVGID_12_);fill:#796A48;}
	.st41{clip-path:url(#SVGID_14_);fill:none;stroke:#796A48;stroke-width:0.283;stroke-miterlimit:3.864;}
	.st42{clip-path:url(#SVGID_16_);fill:#796A48;}
	.st43{clip-path:url(#SVGID_18_);fill:none;stroke:#796A48;stroke-width:0.283;stroke-miterlimit:3.864;}
	.st44{clip-path:url(#SVGID_20_);fill:#796A48;}
	.st45{clip-path:url(#SVGID_22_);fill:none;stroke:#796A48;stroke-width:0.283;stroke-miterlimit:3.864;}
	.st46{clip-path:url(#SVGID_24_);fill:#796A48;}
	.st47{clip-path:url(#SVGID_26_);fill:none;stroke:#796A48;stroke-width:0.283;stroke-miterlimit:3.864;}
	.st48{clip-path:url(#SVGID_28_);fill:#796A48;}
	.st49{clip-path:url(#SVGID_30_);fill:#796A48;}
	.st50{clip-path:url(#SVGID_32_);fill:#796A48;}
	.st51{clip-path:url(#SVGID_34_);fill:#796A48;}
	.st52{fill:#796A48;}
	.st53{fill:#007A4E;}
	.st54{fill:#D50032;}
	.st55{fill:#E35205;}
	.st56{fill:#3F3E3E;}
	.st57{fill:#000018;}
	.st58{fill:#D4DF5B;}
	.st59{fill:#231F20;}
	.st60{fill:#888C8D;}
	.st61{fill:#006D6E;}
	.st62{fill:#004E59;}
	.st63{fill:#00A0DF;}
	.st64{fill:#12284C;}
	.st65{fill:#746661;}
	.st66{fill:#1F1F1F;}
	.st67{fill:#BE1818;}
	.st68{opacity:0.94;}
	.st69{clip-path:url(#SVGID_36_);fill:#BE1818;}
	.st70{clip-path:url(#SVGID_38_);}
	.st71{clip-path:url(#SVGID_40_);}
	.st72{fill:#E50A7B;}
	.st73{clip-path:url(#SVGID_44_);fill:url(#SVGID_45_);}
	.st74{clip-path:url(#SVGID_44_);fill:#E50A7B;}
	.st75{clip-path:url(#SVGID_44_);}
	.st76{fill:#F18826;}
	.st77{fill:#E30762;}
	.st78{fill:#3D3C3B;}
	.st79{fill:#64C3DC;}
	.st80{fill:#F8AE42;}
	.st81{fill:#C91430;}
	.st82{fill:#1B1464;}
	.st83{fill:#666666;}
	.st84{fill:#FFCB08;}
	.st85{clip-path:url(#SVGID_47_);fill:#FFCB08;}
	.st86{fill:#1A1C3A;}
	.st87{fill:#18103A;}
	.st88{fill:#997300;}
	.st89{fill:#C3A572;}
	.st90{fill:#BD2B0B;stroke:#BD2B0B;stroke-width:1.0606;}
	.st91{fill:#F49800;stroke:#F49800;stroke-width:1.0606;}
	.st92{fill:#A6CA56;stroke:#A6CA56;stroke-width:0.7071;}
	.st93{fill:none;}
	.st94{fill:#545456;}
	.st95{fill:#EE2424;}
	.st96{fill:#D9956E;}
	.st97{fill:#0084CB;}
	.st98{fill:#C0AE00;}
	.st99{fill:#2B5034;}
	.st100{fill:#00A1DF;}
	.st101{fill:#474547;}
	.st102{fill:#AE0A3B;}
	.st103{fill:#AC9976;}
	.st104{fill:#35414C;}
	.st105{fill:#3C3C3B;}
	.st106{fill:#0592FF;}
	.st107{fill:#3C3C3C;}
	.st108{fill:#432975;}
	.st109{fill:url(#SVGID_48_);}
	.st110{fill:#00D7B0;}
	.st111{fill:#949698;}
	.st112{fill:#221F1F;}
	.st113{fill:none;stroke:#231F20;stroke-width:0.75;stroke-miterlimit:10;}
	.st114{fill:#6AB023;}
	.st115{fill:#E20026;}
	.st116{fill:#0065A6;}
</style><g
     id="g30"
     transform="matrix(2.9611395,0,0,2.9611395,-1279.219,9.7650714)"
     inkscape:export-xdpi="80.192787"
     inkscape:export-ydpi="80.192787"><path
       class="st114"
       d="m 629.7,35.3 c 1.3,1.3 1.4,3.2 1,4.3 -2,5.6 -3.9,14.5 -6.1,26.2 -2.2,11.7 -4.1,26.7 -4.1,49.1 0,22.5 1.9,37.4 4.1,49.1 2.2,11.7 4.1,20.6 6.1,26.2 0.4,1.2 0.5,2.9 -1,4.3 -1.5,1.5 -3.2,1.4 -4.3,1 -5.6,-2 -14.4,-3.9 -26.1,-6.1 -11.7,-2.2 -26.7,-4.1 -49.1,-4.1 -22.5,0 -37.4,1.9 -49.1,4.1 -11.7,2.2 -20.6,4.2 -26.2,6.1 -1.2,0.4 -3,0.4 -4.3,-1 -1.3,-1.3 -1.3,-3.1 -0.9,-4.3 2,-5.6 3.9,-14.5 6.1,-26.2 2.2,-11.7 4.1,-26.7 4.1,-49.1 0,-22.5 -1.9,-37.4 -4.1,-49.1 -2.2,-11.7 -4.1,-20.6 -6.1,-26.2 -0.4,-1.2 -0.5,-2.9 1,-4.3 1.5,-1.5 3.2,-1.4 4.3,-1 5.6,2 14.4,3.9 26.2,6.1 11.7,2.2 26.7,4.1 49.1,4.1 22.5,0 37.4,-1.9 49.1,-4.1 11.7,-2.2 20.6,-4.1 26.2,-6.1 0.9,-0.3 2.7,-0.3 4.1,1 z"
       id="path6"
       inkscape:connector-curvature="0"
       style="fill:#6ab023" /><g
       id="g28"><g
         id="g26"><path
           class="st8"
           d="M 518.1,117.1 V 87.2 c 0,-1.4 -0.6,-2.1 -2,-2.1 H 510 V 115 c 0,1.4 0.6,2.1 2,2.1 z m 0,-36.7 V 75 c 0,-1.4 -0.6,-2.1 -2,-2.1 H 510 v 5.4 c 0,1.4 0.6,2.1 2,2.1 z m 14.3,13.5 c 1.9,-1.9 3.7,-3 6,-3 3.5,0 5.3,3.4 5.3,10.5 0,6.9 -2.2,10.1 -7.3,10.1 -1.2,0 -2.6,-0.2 -3.9,-0.7 V 93.9 Z m -8.1,20.1 c 0,1.4 0.6,1.7 2,2.2 2.6,0.8 6.4,1.3 9.6,1.3 11.8,0 16.2,-6.8 16.2,-17.4 0,-8.8 -2.7,-15.8 -11.6,-15.8 -3,0 -6,1.4 -8.2,3.5 V 75.1 c 0,-1.4 -0.6,-2.1 -2,-2.1 h -6.1 v 41 z m 40.6,3.1 V 87.2 c 0,-1.4 -0.6,-2.1 -2,-2.1 h -6.1 V 115 c 0,1.4 0.6,2.1 2,2.1 z m 0,-36.7 V 75 c 0,-1.4 -0.6,-2.1 -2,-2.1 h -6.1 v 5.4 c 0,1.4 0.6,2.1 2,2.1 z m 26.3,27.5 c 0,-11.1 -13.7,-10.2 -13.7,-14.4 0,-1.5 0.8,-2.6 4.5,-2.6 2.3,0 5.1,0.5 7.5,1.2 V 88 c 0,-1 -0.5,-1.9 -1.4,-2.1 -2.1,-0.6 -4.4,-1.1 -7.6,-1.1 -7.6,0 -10.9,4.2 -10.9,9.2 0,10.5 13.6,9.3 13.6,14.4 0,2 -1.5,3.1 -5.1,3.1 -2.2,0 -5.6,-0.6 -8.2,-1.2 v 4.1 c 0,1 0.5,1.8 1.4,2.1 2.3,0.7 5.1,1.1 8.2,1.1 6.9,-0.1 11.7,-3.7 11.7,-9.7"
           id="path8"
           inkscape:connector-curvature="0"
           style="fill:#ffffff" /><g
           id="g24"><g
             id="g22"><path
               class="st8"
               d="m 501.8,150.1 c -2.4,0 -4,-0.3 -5.7,-0.7 -0.7,-0.2 -1.1,-0.5 -1.1,-1.3 v -1.5 c 1.9,0.6 4.1,1 6.3,1 3.8,0 5.6,-1.5 5.6,-4.4 0,-6.1 -12.2,-3.9 -12.2,-12.1 0,-3.5 2.5,-6.2 7.6,-6.2 2.4,0 3.6,0.3 5.3,0.7 0.7,0.2 1.1,0.5 1.1,1.3 v 1.5 c -1.9,-0.6 -3.6,-1 -5.9,-1 -3.8,0 -5,1.4 -5,3.5 0,5.8 12.2,3.7 12.2,12 0,4 -2.7,7.2 -8.2,7.2"
               id="path10"
               inkscape:connector-curvature="0"
               style="fill:#ffffff" /><path
               class="st8"
               d="m 520.1,149.7 c -0.8,0 -1.1,-0.3 -1.1,-1.1 v -20.9 h -7.1 v -1.4 c 0,-0.8 0.3,-1.1 1,-1.1 h 16.3 v 1.4 c 0,0.8 -0.3,1.1 -1.1,1.1 H 522 v 22 z"
               id="path12"
               inkscape:connector-curvature="0"
               style="fill:#ffffff" /><path
               class="st8"
               d="m 535.3,149.3 c -0.7,-0.2 -1.1,-0.5 -1.1,-1.3 v -1.5 c 1.9,0.6 4.3,1 6.3,1 4.4,0 6.2,-1.1 6.2,-5 v -2.3 c -1.7,0.3 -3.9,0.7 -6.1,0.7 -6.6,0 -8.1,-2.5 -8.1,-7.5 v -8.2 h 1.9 c 0.8,0 1.1,0.3 1.1,1.1 v 7.1 c 0,4.1 1.6,4.9 5.8,4.9 1.8,0 3.6,-0.2 5.3,-0.6 v -12.6 h 1.9 c 0.8,0 1.1,0.3 1.1,1.1 V 142 c 0,5.2 -2.3,8 -8.7,8 -2,0.1 -4.2,-0.2 -5.6,-0.7"
               id="path14"
               inkscape:connector-curvature="0"
               style="fill:#ffffff" /><path
               class="st8"
               d="m 568.3,148.1 c 0,0.8 -0.3,1.1 -1.1,1.3 -1.9,0.5 -3.8,0.6 -5.6,0.6 -6.2,0 -7.2,-2.5 -7.2,-7.5 v -17.4 h 2 c 0.8,0 1.1,0.3 1.1,1.1 v 16.3 c 0,4.1 1.2,4.9 4.9,4.9 2.1,0 4.1,-0.3 5.9,-0.9 z"
               id="path16"
               inkscape:connector-curvature="0"
               style="fill:#ffffff" /><path
               class="st8"
               d="m 586.8,148.1 c 0,0.7 -0.4,1.1 -1,1.3 -1.7,0.5 -3.2,0.7 -5.7,0.7 -6.8,0 -10.4,-3.8 -10.4,-12.6 0,-8.4 3.4,-12.9 9.5,-12.9 5.9,0 8.9,4.5 8.9,11.7 0,1.3 -0.5,1.8 -1.9,1.8 H 573 c 0.1,6.8 2.3,9.5 7.6,9.5 2.3,0 4.3,-0.4 6.2,-1 z M 573.1,135.6 H 585 c 0,-5.5 -1.9,-8.7 -5.8,-8.7 -3.6,0 -5.8,2.5 -6.1,8.7"
               id="path18"
               inkscape:connector-curvature="0"
               style="fill:#ffffff" /><path
               class="st8"
               d="m 598.3,150.1 c -2.4,0 -4,-0.3 -5.7,-0.7 -0.7,-0.2 -1.1,-0.5 -1.1,-1.3 v -1.5 c 1.9,0.6 4.1,1 6.3,1 3.8,0 5.6,-1.5 5.6,-4.4 0,-6.1 -12.2,-3.9 -12.2,-12.1 0,-3.5 2.5,-6.2 7.6,-6.2 2.4,0 3.6,0.3 5.3,0.7 0.7,0.2 1.1,0.5 1.1,1.3 v 1.5 c -1.9,-0.6 -3.6,-1 -5.9,-1 -3.8,0 -5,1.4 -5,3.5 0,5.8 12.2,3.7 12.2,12 0,4 -2.7,7.2 -8.2,7.2"
               id="path20"
               inkscape:connector-curvature="0"
               style="fill:#ffffff" /></g></g></g></g></g></svg>