<svg width="135" height="58" viewBox="0 0 135 58" fill="none" xmlns="http://www.w3.org/2000/svg">
<path d="M73.2838 22V6.49H79.0478C81.6438 6.49 83.6458 7.15733 85.0538 8.492C86.4765 9.82667 87.1878 11.7407 87.1878 14.234C87.1878 16.7127 86.4765 18.6267 85.0538 19.976C83.6458 21.3253 81.6438 22 79.0478 22H73.2838ZM76.0998 19.668H78.8718C82.4505 19.668 84.2398 17.8567 84.2398 14.234C84.2398 10.626 82.4505 8.822 78.8718 8.822H76.0998V19.668ZM93.6717 22.22C91.0317 22.22 89.7117 20.7387 89.7117 17.776V11.242H92.4617V17.82C92.4617 18.5827 92.6157 19.1473 92.9237 19.514C93.2317 19.8807 93.723 20.064 94.3977 20.064C95.131 20.064 95.7323 19.8147 96.2017 19.316C96.671 18.8027 96.9057 18.128 96.9057 17.292V11.242H99.6557V22H96.9717V20.394C96.253 21.6113 95.153 22.22 93.6717 22.22ZM102.518 22V11.242H105.202V12.914C105.569 12.298 106.06 11.8287 106.676 11.506C107.307 11.1833 108.011 11.022 108.788 11.022C111.325 11.022 112.594 12.496 112.594 15.444V22H109.844V15.576C109.844 14.74 109.683 14.1313 109.36 13.75C109.052 13.3687 108.568 13.178 107.908 13.178C107.101 13.178 106.456 13.4347 105.972 13.948C105.503 14.4467 105.268 15.114 105.268 15.95V22H102.518ZM115.211 8.932V6.248H118.291V8.932H115.211ZM115.387 22V11.242H118.137V22H115.387ZM124.536 22.22C123.759 22.22 123.062 22.0733 122.446 21.78C121.845 21.472 121.368 21.0613 121.016 20.548C120.679 20.0347 120.51 19.4553 120.51 18.81C120.51 18.018 120.716 17.3947 121.126 16.94C121.537 16.4707 122.204 16.1333 123.128 15.928C124.052 15.7227 125.292 15.62 126.846 15.62H127.616V15.158C127.616 14.4247 127.455 13.8967 127.132 13.574C126.81 13.2513 126.267 13.09 125.504 13.09C124.903 13.09 124.287 13.1853 123.656 13.376C123.026 13.552 122.388 13.8307 121.742 14.212L120.95 12.342C121.332 12.078 121.779 11.8507 122.292 11.66C122.82 11.4547 123.37 11.3007 123.942 11.198C124.529 11.0807 125.079 11.022 125.592 11.022C127.162 11.022 128.328 11.3887 129.09 12.122C129.853 12.8407 130.234 13.9627 130.234 15.488V22H127.66V20.284C127.411 20.8853 127.015 21.362 126.472 21.714C125.93 22.0513 125.284 22.22 124.536 22.22ZM125.108 20.328C125.827 20.328 126.421 20.0787 126.89 19.58C127.374 19.0813 127.616 18.4507 127.616 17.688V17.204H126.868C125.49 17.204 124.529 17.314 123.986 17.534C123.458 17.7393 123.194 18.1207 123.194 18.678C123.194 19.162 123.363 19.558 123.7 19.866C124.038 20.174 124.507 20.328 125.108 20.328ZM77.0238 51V37.844H71.6998V35.49H85.1638V37.844H79.8398V51H77.0238ZM84.9652 51V40.242H87.6492V42.134C88.1772 40.858 89.3065 40.154 91.0372 40.022L91.8732 39.956L92.0492 42.288L90.4652 42.442C88.6612 42.618 87.7592 43.542 87.7592 45.214V51H84.9652ZM97.015 51.22C96.2376 51.22 95.541 51.0733 94.925 50.78C94.3236 50.472 93.847 50.0613 93.495 49.548C93.1576 49.0347 92.989 48.4553 92.989 47.81C92.989 47.018 93.1943 46.3947 93.605 45.94C94.0156 45.4707 94.683 45.1333 95.607 44.928C96.531 44.7227 97.7703 44.62 99.325 44.62H100.095V44.158C100.095 43.4247 99.9336 42.8967 99.611 42.574C99.2883 42.2513 98.7456 42.09 97.983 42.09C97.3816 42.09 96.7656 42.1853 96.135 42.376C95.5043 42.552 94.8663 42.8307 94.221 43.212L93.429 41.342C93.8103 41.078 94.2576 40.8507 94.771 40.66C95.299 40.4547 95.849 40.3007 96.421 40.198C97.0076 40.0807 97.5576 40.022 98.071 40.022C99.6403 40.022 100.806 40.3887 101.569 41.122C102.332 41.8407 102.713 42.9627 102.713 44.488V51H100.139V49.284C99.8896 49.8853 99.4936 50.362 98.951 50.714C98.4083 51.0513 97.763 51.22 97.015 51.22ZM97.587 49.328C98.3056 49.328 98.8996 49.0787 99.369 48.58C99.853 48.0813 100.095 47.4507 100.095 46.688V46.204H99.347C97.9683 46.204 97.0076 46.314 96.465 46.534C95.937 46.7393 95.673 47.1207 95.673 47.678C95.673 48.162 95.8416 48.558 96.179 48.866C96.5163 49.174 96.9856 49.328 97.587 49.328ZM108.565 51L103.901 40.242H106.827L109.819 47.766L112.921 40.242H115.671L110.941 51H108.565ZM122.086 51.22C120.868 51.22 119.82 50.9927 118.94 50.538C118.06 50.0833 117.378 49.438 116.894 48.602C116.424 47.766 116.19 46.776 116.19 45.632C116.19 44.5173 116.417 43.542 116.872 42.706C117.341 41.87 117.979 41.2173 118.786 40.748C119.607 40.264 120.538 40.022 121.58 40.022C123.105 40.022 124.308 40.506 125.188 41.474C126.082 42.442 126.53 43.762 126.53 45.434V46.248H118.83C119.035 48.1693 120.135 49.13 122.13 49.13C122.731 49.13 123.332 49.042 123.934 48.866C124.535 48.6753 125.085 48.382 125.584 47.986L126.354 49.834C125.84 50.2593 125.195 50.5967 124.418 50.846C123.64 51.0953 122.863 51.22 122.086 51.22ZM121.69 41.892C120.883 41.892 120.23 42.1413 119.732 42.64C119.233 43.1387 118.932 43.8133 118.83 44.664H124.242C124.183 43.7693 123.934 43.0873 123.494 42.618C123.068 42.134 122.467 41.892 121.69 41.892ZM132.447 51.22C131.171 51.22 130.225 50.8753 129.609 50.186C129.008 49.482 128.707 48.4553 128.707 47.106V35.49H131.457V46.974C131.457 48.294 132.015 48.954 133.129 48.954C133.291 48.954 133.452 48.9467 133.613 48.932C133.775 48.9173 133.929 48.888 134.075 48.844L134.031 51.022C133.503 51.154 132.975 51.22 132.447 51.22Z" fill="#383E44"/>
<path fill-rule="evenodd" clip-rule="evenodd" d="M33.0899 55C43.3071 55 51.5899 43.5833 51.5899 29.5C51.5899 15.4167 43.3071 4 33.0899 4C27.2701 4 22.0781 7.70405 18.6868 13.4951C16.0292 11.9086 12.7543 11 8.08983 11C-1.64099 11 -0.550557 14.9543 1.05285 20.7688C1.77003 23.3695 2.58983 26.3424 2.58983 29.5C2.58983 32.6576 1.77003 35.6305 1.05285 38.2312C-0.550558 44.0457 -1.64099 48 8.08983 48C12.7543 48 16.0292 47.0914 18.6868 45.5049C22.0781 51.296 27.2701 55 33.0899 55ZM18.6868 45.5049C16.1242 41.129 14.5898 35.5615 14.5898 29.5C14.5898 23.4385 16.1242 17.871 18.6868 13.4951C21.9021 15.4146 24.2136 18.3265 26.9886 21.8223C28.1818 23.3253 29.4606 24.9364 30.9339 26.6229C32.3652 28.2614 32.3652 30.7386 30.9339 32.3771C29.4606 34.0636 28.1818 35.6747 26.9886 37.1777C24.2136 40.6735 21.9021 43.5854 18.6868 45.5049Z" fill="#0D76D8"/>
</svg>
